<?xml version="1.0" encoding="UTF-8" standalone="no"?>
<!DOCTYPE svg PUBLIC "-//W3C//DTD SVG 1.1//EN"
 "http://www.w3.org/Graphics/SVG/1.1/DTD/svg11.dtd">
<!-- Generated by graphviz version 2.47.0 (20210316.0004)
 -->
<!-- Title: dependencies Pages: 1 -->
<svg width="3295pt" height="284pt"
 viewBox="0.00 0.00 3295.00 284.00" xmlns="http://www.w3.org/2000/svg" xmlns:xlink="http://www.w3.org/1999/xlink">
<g id="graph0" class="graph" transform="scale(1 1) rotate(0) translate(4 280)">
<title>dependencies</title>
<polygon fill="white" stroke="transparent" points="-4,4 -4,-280 3291,-280 3291,4 -4,4"/>
<text text-anchor="start" x="1622.51" y="-42.4" font-family="Times-12" font-weight="bold" font-size="14.00">Legend</text>
<polygon fill="#ffffb3" stroke="transparent" points="1409.5,-10 1409.5,-30 1429.5,-30 1429.5,-10 1409.5,-10"/>
<text text-anchor="start" x="1433.13" y="-15.4" font-family="Times-12" font-size="14.00"> &#160;Declarations</text>
<polygon fill="#8dd3c7" stroke="transparent" points="1522.5,-10 1522.5,-30 1542.5,-30 1542.5,-10 1522.5,-10"/>
<text text-anchor="start" x="1546.23" y="-15.4" font-family="Times-12" font-size="14.00"> &#160;Module</text>
<polygon fill="#80b1d3" stroke="transparent" points="1608.5,-10 1608.5,-30 1628.5,-30 1628.5,-10 1608.5,-10"/>
<text text-anchor="start" x="1632.28" y="-15.4" font-family="Times-12" font-size="14.00"> &#160;Bootstrap</text>
<polygon fill="#fdb462" stroke="transparent" points="1705.5,-10 1705.5,-30 1725.5,-30 1725.5,-10 1705.5,-10"/>
<text text-anchor="start" x="1729.17" y="-15.4" font-family="Times-12" font-size="14.00"> &#160;Providers</text>
<polygon fill="#fb8072" stroke="transparent" points="1801.5,-10 1801.5,-30 1821.5,-30 1821.5,-10 1801.5,-10"/>
<text text-anchor="start" x="1825.23" y="-15.4" font-family="Times-12" font-size="14.00"> &#160;Exports</text>
<g id="clust1" class="cluster">
<title>cluster_AppModule</title>
<polygon fill="none" stroke="black" stroke-dasharray="1,5" points="8,-70 8,-268 3279,-268 3279,-70 8,-70"/>
</g>
<g id="clust4" class="cluster">
<title>cluster_AppModule_imports</title>
<polygon fill="none" stroke="black" points="324,-78 324,-130 3271,-130 3271,-78 324,-78"/>
</g>
<g id="clust2" class="cluster">
<title>cluster_AppModule_declarations</title>
<polygon fill="none" stroke="black" points="194,-78 194,-130 316,-130 316,-78 194,-78"/>
</g>
<g id="clust7" class="cluster">
<title>cluster_AppModule_providers</title>
<polygon fill="none" stroke="black" points="16,-78 16,-130 186,-130 186,-78 16,-78"/>
</g>
<g id="clust6" class="cluster">
<title>cluster_AppModule_bootstrap</title>
<polygon fill="none" stroke="black" points="1584,-208 1584,-260 1708,-260 1708,-208 1584,-208"/>
</g>
<!-- AppComponent -->
<g id="node1" class="node">
<title>AppComponent</title>
<polygon fill="#ffffb3" stroke="black" points="307.94,-122 202.06,-122 202.06,-86 307.94,-86 307.94,-122"/>
<text text-anchor="middle" x="255" y="-99.8" font-family="Times,serif" font-size="14.00">AppComponent</text>
</g>
<!-- AppModule -->
<g id="node2" class="node">
<title>AppModule</title>
<polygon fill="#8dd3c7" stroke="black" points="1687.66,-187 1684.66,-191 1663.66,-191 1660.66,-187 1604.34,-187 1604.34,-151 1687.66,-151 1687.66,-187"/>
<text text-anchor="middle" x="1646" y="-164.8" font-family="Times,serif" font-size="14.00">AppModule</text>
</g>
<!-- AppComponent&#45;&gt;AppModule -->
<g id="edge1" class="edge">
<title>AppComponent&#45;&gt;AppModule</title>
<path fill="none" stroke="black" d="M255,-122.25C255,-145.02 255,-181 255,-181 255,-181 1593.99,-181 1593.99,-181"/>
<polygon fill="black" stroke="black" points="1593.99,-184.5 1603.99,-181 1593.99,-177.5 1593.99,-184.5"/>
</g>
<!-- AppComponent  -->
<g id="node24" class="node">
<title>AppComponent </title>
<polygon fill="#80b1d3" stroke="black" points="1700.44,-252 1591.56,-252 1591.56,-216 1700.44,-216 1700.44,-252"/>
<text text-anchor="middle" x="1646" y="-229.8" font-family="Times,serif" font-size="14.00">AppComponent </text>
</g>
<!-- AppModule&#45;&gt;AppComponent  -->
<g id="edge23" class="edge">
<title>AppModule&#45;&gt;AppComponent </title>
<path fill="none" stroke="black" stroke-dasharray="1,5" d="M1646,-187.11C1646,-187.11 1646,-205.99 1646,-205.99"/>
<polygon fill="black" stroke="black" points="1642.5,-205.99 1646,-215.99 1649.5,-205.99 1642.5,-205.99"/>
</g>
<!-- AttendanceModule -->
<g id="node3" class="node">
<title>AttendanceModule</title>
<polygon fill="#8dd3c7" stroke="black" points="3262.8,-122 3259.8,-126 3238.8,-126 3235.8,-122 3139.2,-122 3139.2,-86 3262.8,-86 3262.8,-122"/>
<text text-anchor="middle" x="3201" y="-99.8" font-family="Times,serif" font-size="14.00">AttendanceModule</text>
</g>
<!-- AttendanceModule&#45;&gt;AppModule -->
<g id="edge2" class="edge">
<title>AttendanceModule&#45;&gt;AppModule</title>
<path fill="none" stroke="black" d="M3201,-122.15C3201,-145.76 3201,-184 3201,-184 3201,-184 1697.99,-184 1697.99,-184"/>
<polygon fill="black" stroke="black" points="1697.99,-180.5 1687.99,-184 1697.99,-187.5 1697.99,-180.5"/>
</g>
<!-- ChildrenModule -->
<g id="node4" class="node">
<title>ChildrenModule</title>
<polygon fill="#8dd3c7" stroke="black" points="3121.04,-122 3118.04,-126 3097.04,-126 3094.04,-122 3012.96,-122 3012.96,-86 3121.04,-86 3121.04,-122"/>
<text text-anchor="middle" x="3067" y="-99.8" font-family="Times,serif" font-size="14.00">ChildrenModule</text>
</g>
<!-- ChildrenModule&#45;&gt;AppModule -->
<g id="edge3" class="edge">
<title>ChildrenModule&#45;&gt;AppModule</title>
<path fill="none" stroke="black" d="M3067,-122.25C3067,-145.02 3067,-181 3067,-181 3067,-181 1697.76,-181 1697.76,-181"/>
<polygon fill="black" stroke="black" points="1697.76,-177.5 1687.76,-181 1697.76,-184.5 1697.76,-177.5"/>
</g>
<!-- ConfigurableEnumModule -->
<g id="node5" class="node">
<title>ConfigurableEnumModule</title>
<polygon fill="#8dd3c7" stroke="black" points="2994.36,-122 2991.36,-126 2970.36,-126 2967.36,-122 2827.64,-122 2827.64,-86 2994.36,-86 2994.36,-122"/>
<text text-anchor="middle" x="2911" y="-99.8" font-family="Times,serif" font-size="14.00">ConfigurableEnumModule</text>
</g>
<!-- ConfigurableEnumModule&#45;&gt;AppModule -->
<g id="edge4" class="edge">
<title>ConfigurableEnumModule&#45;&gt;AppModule</title>
<path fill="none" stroke="black" d="M2911,-122.29C2911,-144.21 2911,-178 2911,-178 2911,-178 1697.73,-178 1697.73,-178"/>
<polygon fill="black" stroke="black" points="1697.73,-174.5 1687.73,-178 1697.73,-181.5 1697.73,-174.5"/>
</g>
<!-- ConflictResolutionModule -->
<g id="node6" class="node">
<title>ConflictResolutionModule</title>
<polygon fill="#8dd3c7" stroke="black" points="2810.1,-122 2807.1,-126 2786.1,-126 2783.1,-122 2643.9,-122 2643.9,-86 2810.1,-86 2810.1,-122"/>
<text text-anchor="middle" x="2727" y="-99.8" font-family="Times,serif" font-size="14.00">ConflictResolutionModule</text>
</g>
<!-- ConflictResolutionModule&#45;&gt;AppModule -->
<g id="edge5" class="edge">
<title>ConflictResolutionModule&#45;&gt;AppModule</title>
<path fill="none" stroke="black" d="M2727,-122.28C2727,-143.32 2727,-175 2727,-175 2727,-175 1697.71,-175 1697.71,-175"/>
<polygon fill="black" stroke="black" points="1697.71,-171.5 1687.71,-175 1697.71,-178.5 1697.71,-171.5"/>
</g>
<!-- CoreModule -->
<g id="node7" class="node">
<title>CoreModule</title>
<polygon fill="#8dd3c7" stroke="black" points="2626.26,-122 2623.26,-126 2602.26,-126 2599.26,-122 2539.74,-122 2539.74,-86 2626.26,-86 2626.26,-122"/>
<text text-anchor="middle" x="2583" y="-99.8" font-family="Times,serif" font-size="14.00">CoreModule</text>
</g>
<!-- CoreModule&#45;&gt;AppModule -->
<g id="edge6" class="edge">
<title>CoreModule&#45;&gt;AppModule</title>
<path fill="none" stroke="black" d="M2583,-122.22C2583,-142.37 2583,-172 2583,-172 2583,-172 1697.78,-172 1697.78,-172"/>
<polygon fill="black" stroke="black" points="1697.78,-168.5 1687.78,-172 1697.78,-175.5 1697.78,-168.5"/>
</g>
<!-- DataImportModule -->
<g id="node8" class="node">
<title>DataImportModule</title>
<polygon fill="#8dd3c7" stroke="black" points="2522.08,-122 2519.08,-126 2498.08,-126 2495.08,-122 2397.92,-122 2397.92,-86 2522.08,-86 2522.08,-122"/>
<text text-anchor="middle" x="2460" y="-99.8" font-family="Times,serif" font-size="14.00">DataImportModule</text>
</g>
<!-- DataImportModule&#45;&gt;AppModule -->
<g id="edge7" class="edge">
<title>DataImportModule&#45;&gt;AppModule</title>
<path fill="none" stroke="black" d="M2460,-122.11C2460,-141.34 2460,-169 2460,-169 2460,-169 1697.77,-169 1697.77,-169"/>
<polygon fill="black" stroke="black" points="1697.77,-165.5 1687.77,-169 1697.77,-172.5 1697.77,-165.5"/>
</g>
<!-- DatabaseModule -->
<g id="node9" class="node">
<title>DatabaseModule</title>
<polygon fill="#8dd3c7" stroke="black" points="2380.35,-122 2377.35,-126 2356.35,-126 2353.35,-122 2269.65,-122 2269.65,-86 2380.35,-86 2380.35,-122"/>
<text text-anchor="middle" x="2325" y="-99.8" font-family="Times,serif" font-size="14.00">DatabaseModule</text>
</g>
<!-- DatabaseModule&#45;&gt;AppModule -->
<g id="edge8" class="edge">
<title>DatabaseModule&#45;&gt;AppModule</title>
<path fill="none" stroke="black" d="M2325,-122.27C2325,-140.56 2325,-166 2325,-166 2325,-166 1697.71,-166 1697.71,-166"/>
<polygon fill="black" stroke="black" points="1697.71,-162.5 1687.71,-166 1697.71,-169.5 1697.71,-162.5"/>
</g>
<!-- FileModule -->
<g id="node10" class="node">
<title>FileModule</title>
<polygon fill="#8dd3c7" stroke="black" points="2251.83,-122 2248.83,-126 2227.83,-126 2224.83,-122 2170.17,-122 2170.17,-86 2251.83,-86 2251.83,-122"/>
<text text-anchor="middle" x="2211" y="-99.8" font-family="Times,serif" font-size="14.00">FileModule</text>
</g>
<!-- FileModule&#45;&gt;AppModule -->
<g id="edge9" class="edge">
<title>FileModule&#45;&gt;AppModule</title>
<path fill="none" stroke="black" d="M2211,-122.02C2211,-139.37 2211,-163 2211,-163 2211,-163 1698.01,-163 1698.01,-163"/>
<polygon fill="black" stroke="black" points="1698.01,-159.5 1688.01,-163 1698.01,-166.5 1698.01,-159.5"/>
</g>
<!-- HistoricalDataModule -->
<g id="node11" class="node">
<title>HistoricalDataModule</title>
<polygon fill="#8dd3c7" stroke="black" points="2152.68,-122 2149.68,-126 2128.68,-126 2125.68,-122 2011.32,-122 2011.32,-86 2152.68,-86 2152.68,-122"/>
<text text-anchor="middle" x="2082" y="-99.8" font-family="Times,serif" font-size="14.00">HistoricalDataModule</text>
</g>
<!-- HistoricalDataModule&#45;&gt;AppModule -->
<g id="edge10" class="edge">
<title>HistoricalDataModule&#45;&gt;AppModule</title>
<path fill="none" stroke="black" d="M2082,-122.03C2082,-138.4 2082,-160 2082,-160 2082,-160 1697.81,-160 1697.81,-160"/>
<polygon fill="black" stroke="black" points="1697.81,-156.5 1687.81,-160 1697.81,-163.5 1697.81,-156.5"/>
</g>
<!-- LanguageModule -->
<g id="node12" class="node">
<title>LanguageModule</title>
<polygon fill="#8dd3c7" stroke="black" points="1993.25,-122 1990.25,-126 1969.25,-126 1966.25,-122 1878.75,-122 1878.75,-86 1993.25,-86 1993.25,-122"/>
<text text-anchor="middle" x="1936" y="-99.8" font-family="Times,serif" font-size="14.00">LanguageModule</text>
</g>
<!-- LanguageModule&#45;&gt;AppModule -->
<g id="edge11" class="edge">
<title>LanguageModule&#45;&gt;AppModule</title>
<path fill="none" stroke="black" d="M1936,-122.24C1936,-137.57 1936,-157 1936,-157 1936,-157 1697.86,-157 1697.86,-157"/>
<polygon fill="black" stroke="black" points="1697.86,-153.5 1687.86,-157 1697.86,-160.5 1697.86,-153.5"/>
</g>
<!-- LatestChangesModule -->
<g id="node13" class="node">
<title>LatestChangesModule</title>
<polygon fill="#8dd3c7" stroke="black" points="1860.97,-122 1857.97,-126 1836.97,-126 1833.97,-122 1719.03,-122 1719.03,-86 1860.97,-86 1860.97,-122"/>
<text text-anchor="middle" x="1790" y="-99.8" font-family="Times,serif" font-size="14.00">LatestChangesModule</text>
</g>
<!-- LatestChangesModule&#45;&gt;AppModule -->
<g id="edge12" class="edge">
<title>LatestChangesModule&#45;&gt;AppModule</title>
<path fill="none" stroke="black" d="M1790,-122.05C1790,-136.37 1790,-154 1790,-154 1790,-154 1698.04,-154 1698.04,-154"/>
<polygon fill="black" stroke="black" points="1698.04,-150.5 1688.04,-154 1698.04,-157.5 1698.04,-150.5"/>
</g>
<!-- LocationModule -->
<g id="node14" class="node">
<title>LocationModule</title>
<polygon fill="#8dd3c7" stroke="black" points="1700.81,-122 1697.81,-126 1676.81,-126 1673.81,-122 1591.19,-122 1591.19,-86 1700.81,-86 1700.81,-122"/>
<text text-anchor="middle" x="1646" y="-99.8" font-family="Times,serif" font-size="14.00">LocationModule</text>
</g>
<!-- LocationModule&#45;&gt;AppModule -->
<g id="edge13" class="edge">
<title>LocationModule&#45;&gt;AppModule</title>
<path fill="none" stroke="black" d="M1646,-122.11C1646,-122.11 1646,-140.99 1646,-140.99"/>
<polygon fill="black" stroke="black" points="1642.5,-140.99 1646,-150.99 1649.5,-140.99 1642.5,-140.99"/>
</g>
<!-- MatchingEntitiesModule -->
<g id="node15" class="node">
<title>MatchingEntitiesModule</title>
<polygon fill="#8dd3c7" stroke="black" points="1572.98,-122 1569.98,-126 1548.98,-126 1545.98,-122 1417.02,-122 1417.02,-86 1572.98,-86 1572.98,-122"/>
<text text-anchor="middle" x="1495" y="-99.8" font-family="Times,serif" font-size="14.00">MatchingEntitiesModule</text>
</g>
<!-- MatchingEntitiesModule&#45;&gt;AppModule -->
<g id="edge14" class="edge">
<title>MatchingEntitiesModule&#45;&gt;AppModule</title>
<path fill="none" stroke="black" d="M1495,-122.05C1495,-136.37 1495,-154 1495,-154 1495,-154 1594.34,-154 1594.34,-154"/>
<polygon fill="black" stroke="black" points="1594.34,-157.5 1604.34,-154 1594.34,-150.5 1594.34,-157.5"/>
</g>
<!-- NotesModule -->
<g id="node16" class="node">
<title>NotesModule</title>
<polygon fill="#8dd3c7" stroke="black" points="1399.21,-122 1396.21,-126 1375.21,-126 1372.21,-122 1306.79,-122 1306.79,-86 1399.21,-86 1399.21,-122"/>
<text text-anchor="middle" x="1353" y="-99.8" font-family="Times,serif" font-size="14.00">NotesModule</text>
</g>
<!-- NotesModule&#45;&gt;AppModule -->
<g id="edge15" class="edge">
<title>NotesModule&#45;&gt;AppModule</title>
<path fill="none" stroke="black" d="M1353,-122.24C1353,-137.57 1353,-157 1353,-157 1353,-157 1594.33,-157 1594.33,-157"/>
<polygon fill="black" stroke="black" points="1594.33,-160.5 1604.33,-157 1594.33,-153.5 1594.33,-160.5"/>
</g>
<!-- PermissionsModule -->
<g id="node17" class="node">
<title>PermissionsModule</title>
<polygon fill="#8dd3c7" stroke="black" points="1288.71,-122 1285.71,-126 1264.71,-126 1261.71,-122 1161.29,-122 1161.29,-86 1288.71,-86 1288.71,-122"/>
<text text-anchor="middle" x="1225" y="-99.8" font-family="Times,serif" font-size="14.00">PermissionsModule</text>
</g>
<!-- PermissionsModule&#45;&gt;AppModule -->
<g id="edge16" class="edge">
<title>PermissionsModule&#45;&gt;AppModule</title>
<path fill="none" stroke="black" d="M1225,-122.03C1225,-138.4 1225,-160 1225,-160 1225,-160 1594.09,-160 1594.09,-160"/>
<polygon fill="black" stroke="black" points="1594.09,-163.5 1604.09,-160 1594.09,-156.5 1594.09,-163.5"/>
</g>
<!-- ProgressDashboardWidgetModule -->
<g id="node18" class="node">
<title>ProgressDashboardWidgetModule</title>
<polygon fill="#8dd3c7" stroke="black" points="1143.61,-122 1140.61,-126 1119.61,-126 1116.61,-122 934.39,-122 934.39,-86 1143.61,-86 1143.61,-122"/>
<text text-anchor="middle" x="1039" y="-99.8" font-family="Times,serif" font-size="14.00">ProgressDashboardWidgetModule</text>
</g>
<!-- ProgressDashboardWidgetModule&#45;&gt;AppModule -->
<g id="edge17" class="edge">
<title>ProgressDashboardWidgetModule&#45;&gt;AppModule</title>
<path fill="none" stroke="black" d="M1039,-122.02C1039,-139.37 1039,-163 1039,-163 1039,-163 1594.28,-163 1594.28,-163"/>
<polygon fill="black" stroke="black" points="1594.28,-166.5 1604.28,-163 1594.28,-159.5 1594.28,-166.5"/>
</g>
<!-- ReportingModule -->
<g id="node19" class="node">
<title>ReportingModule</title>
<polygon fill="#8dd3c7" stroke="black" points="915.54,-122 912.54,-126 891.54,-126 888.54,-122 800.46,-122 800.46,-86 915.54,-86 915.54,-122"/>
<text text-anchor="middle" x="858" y="-99.8" font-family="Times,serif" font-size="14.00">ReportingModule</text>
</g>
<!-- ReportingModule&#45;&gt;AppModule -->
<g id="edge18" class="edge">
<title>ReportingModule&#45;&gt;AppModule</title>
<path fill="none" stroke="black" d="M858,-122.27C858,-140.56 858,-166 858,-166 858,-166 1594.19,-166 1594.19,-166"/>
<polygon fill="black" stroke="black" points="1594.19,-169.5 1604.19,-166 1594.19,-162.5 1594.19,-169.5"/>
</g>
<!-- SchoolsModule -->
<g id="node20" class="node">
<title>SchoolsModule</title>
<polygon fill="#8dd3c7" stroke="black" points="781.88,-122 778.88,-126 757.88,-126 754.88,-122 678.12,-122 678.12,-86 781.88,-86 781.88,-122"/>
<text text-anchor="middle" x="730" y="-99.8" font-family="Times,serif" font-size="14.00">SchoolsModule</text>
</g>
<!-- SchoolsModule&#45;&gt;AppModule -->
<g id="edge19" class="edge">
<title>SchoolsModule&#45;&gt;AppModule</title>
<path fill="none" stroke="black" d="M730,-122.11C730,-141.34 730,-169 730,-169 730,-169 1594.26,-169 1594.26,-169"/>
<polygon fill="black" stroke="black" points="1594.26,-172.5 1604.26,-169 1594.26,-165.5 1594.26,-172.5"/>
</g>
<!-- SessionModule -->
<g id="node21" class="node">
<title>SessionModule</title>
<polygon fill="#8dd3c7" stroke="black" points="660.33,-122 657.33,-126 636.33,-126 633.33,-122 557.67,-122 557.67,-86 660.33,-86 660.33,-122"/>
<text text-anchor="middle" x="609" y="-99.8" font-family="Times,serif" font-size="14.00">SessionModule</text>
</g>
<!-- SessionModule&#45;&gt;AppModule -->
<g id="edge20" class="edge">
<title>SessionModule&#45;&gt;AppModule</title>
<path fill="none" stroke="black" d="M609,-122.22C609,-142.37 609,-172 609,-172 609,-172 1594.06,-172 1594.06,-172"/>
<polygon fill="black" stroke="black" points="1594.06,-175.5 1604.06,-172 1594.06,-168.5 1594.06,-175.5"/>
</g>
<!-- TodosModule -->
<g id="node22" class="node">
<title>TodosModule</title>
<polygon fill="#8dd3c7" stroke="black" points="540.05,-122 537.05,-126 516.05,-126 513.05,-122 445.95,-122 445.95,-86 540.05,-86 540.05,-122"/>
<text text-anchor="middle" x="493" y="-99.8" font-family="Times,serif" font-size="14.00">TodosModule</text>
</g>
<!-- TodosModule&#45;&gt;AppModule -->
<g id="edge21" class="edge">
<title>TodosModule&#45;&gt;AppModule</title>
<path fill="none" stroke="black" d="M493,-122.28C493,-143.32 493,-175 493,-175 493,-175 1594.28,-175 1594.28,-175"/>
<polygon fill="black" stroke="black" points="1594.28,-178.5 1604.28,-175 1594.28,-171.5 1594.28,-178.5"/>
</g>
<!-- UiComponent -->
<g id="node23" class="node">
<title>UiComponent</title>
<polygon fill="#8dd3c7" stroke="black" points="427.83,-122 424.83,-126 403.83,-126 400.83,-122 332.17,-122 332.17,-86 427.83,-86 427.83,-122"/>
<text text-anchor="middle" x="380" y="-99.8" font-family="Times,serif" font-size="14.00">UiComponent</text>
</g>
<!-- UiComponent&#45;&gt;AppModule -->
<g id="edge22" class="edge">
<title>UiComponent&#45;&gt;AppModule</title>
<path fill="none" stroke="black" d="M380,-122.29C380,-144.21 380,-178 380,-178 380,-178 1594.24,-178 1594.24,-178"/>
<polygon fill="black" stroke="black" points="1594.24,-181.5 1604.24,-178 1594.24,-174.5 1594.24,-181.5"/>
</g>
<!-- AnalyticsService -->
<g id="node25" class="node">
<title>AnalyticsService</title>
<ellipse fill="#fdb462" stroke="black" cx="101" cy="-104" rx="77" ry="18"/>
<text text-anchor="middle" x="101" y="-99.8" font-family="Times,serif" font-size="14.00">AnalyticsService</text>
</g>
<!-- AnalyticsService&#45;&gt;AppModule -->
<g id="edge24" class="edge">
<title>AnalyticsService&#45;&gt;AppModule</title>
<path fill="none" stroke="black" d="M101,-122.15C101,-145.76 101,-184 101,-184 101,-184 1594.28,-184 1594.28,-184"/>
<polygon fill="black" stroke="black" points="1594.28,-187.5 1604.28,-184 1594.28,-180.5 1594.28,-187.5"/>
</g>
</g>
</svg>
