<?xml version="1.0" encoding="UTF-8" standalone="no"?>
<!DOCTYPE svg PUBLIC "-//W3C//DTD SVG 1.1//EN"
 "http://www.w3.org/Graphics/SVG/1.1/DTD/svg11.dtd">
<!-- Generated by graphviz version 2.47.0 (20210316.0004)
 -->
<!-- Title: dependencies Pages: 1 -->
<svg width="504pt" height="211pt"
 viewBox="0.00 0.00 504.00 211.00" xmlns="http://www.w3.org/2000/svg" xmlns:xlink="http://www.w3.org/1999/xlink">
<g id="graph0" class="graph" transform="scale(1 1) rotate(0) translate(4 207)">
<title>dependencies</title>
<polygon fill="white" stroke="transparent" points="-4,4 -4,-207 500,-207 500,4 -4,4"/>
<text text-anchor="start" x="227.01" y="-42.4" font-family="Times-12" font-weight="bold" font-size="14.00">Legend</text>
<polygon fill="#ffffb3" stroke="transparent" points="14,-10 14,-30 34,-30 34,-10 14,-10"/>
<text text-anchor="start" x="37.63" y="-15.4" font-family="Times-12" font-size="14.00"> &#160;Declarations</text>
<polygon fill="#8dd3c7" stroke="transparent" points="127,-10 127,-30 147,-30 147,-10 127,-10"/>
<text text-anchor="start" x="150.73" y="-15.4" font-family="Times-12" font-size="14.00"> &#160;Module</text>
<polygon fill="#80b1d3" stroke="transparent" points="213,-10 213,-30 233,-30 233,-10 213,-10"/>
<text text-anchor="start" x="236.78" y="-15.4" font-family="Times-12" font-size="14.00"> &#160;Bootstrap</text>
<polygon fill="#fdb462" stroke="transparent" points="310,-10 310,-30 330,-30 330,-10 310,-10"/>
<text text-anchor="start" x="333.67" y="-15.4" font-family="Times-12" font-size="14.00"> &#160;Providers</text>
<polygon fill="#fb8072" stroke="transparent" points="406,-10 406,-30 426,-30 426,-10 406,-10"/>
<text text-anchor="start" x="429.73" y="-15.4" font-family="Times-12" font-size="14.00"> &#160;Exports</text>
<g id="clust1" class="cluster">
<title>cluster_PermissionsModule</title>
<polygon fill="none" stroke="black" stroke-dasharray="1,5" points="94,-70 94,-195 402,-195 402,-70 94,-70"/>
</g>
<g id="clust6" class="cluster">
<title>cluster_PermissionsModule_providers</title>
<polygon fill="none" stroke="black" points="102,-78 102,-130 394,-130 394,-78 102,-78"/>
</g>
<!-- AbilityService -->
<g id="node1" class="node">
<title>AbilityService</title>
<ellipse fill="#fdb462" stroke="black" cx="319" cy="-104" rx="67.21" ry="18"/>
<text text-anchor="middle" x="319" y="-99.8" font-family="Times,serif" font-size="14.00">AbilityService</text>
</g>
<!-- PermissionsModule -->
<g id="node3" class="node">
<title>PermissionsModule</title>
<polygon fill="#8dd3c7" stroke="black" points="308.71,-187 305.71,-191 284.71,-191 281.71,-187 181.29,-187 181.29,-151 308.71,-151 308.71,-187"/>
<text text-anchor="middle" x="245" y="-164.8" font-family="Times,serif" font-size="14.00">PermissionsModule</text>
</g>
<!-- AbilityService&#45;&gt;PermissionsModule -->
<g id="edge1" class="edge">
<title>AbilityService&#45;&gt;PermissionsModule</title>
<path fill="none" stroke="black" d="M280.13,-118.75C280.13,-118.75 280.13,-140.59 280.13,-140.59"/>
<polygon fill="black" stroke="black" points="276.63,-140.59 280.13,-150.59 283.63,-140.59 276.63,-140.59"/>
</g>
<!-- EntityAbility -->
<g id="node2" class="node">
<title>EntityAbility</title>
<ellipse fill="#fdb462" stroke="black" cx="172" cy="-104" rx="62.01" ry="18"/>
<text text-anchor="middle" x="172" y="-99.8" font-family="Times,serif" font-size="14.00">EntityAbility</text>
</g>
<!-- EntityAbility&#45;&gt;PermissionsModule -->
<g id="edge2" class="edge">
<title>EntityAbility&#45;&gt;PermissionsModule</title>
<path fill="none" stroke="black" d="M207.7,-118.75C207.7,-118.75 207.7,-140.59 207.7,-140.59"/>
<polygon fill="black" stroke="black" points="204.2,-140.59 207.7,-150.59 211.2,-140.59 204.2,-140.59"/>
</g>
</g>
</svg>
