<?xml version="1.0" encoding="UTF-8" standalone="no"?>
<!DOCTYPE svg PUBLIC "-//W3C//DTD SVG 1.1//EN"
 "http://www.w3.org/Graphics/SVG/1.1/DTD/svg11.dtd">
<!-- Generated by graphviz version 2.47.0 (20210316.0004)
 -->
<!-- Title: dependencies Pages: 1 -->
<svg width="1135pt" height="211pt"
 viewBox="0.00 0.00 1135.00 211.00" xmlns="http://www.w3.org/2000/svg" xmlns:xlink="http://www.w3.org/1999/xlink">
<g id="graph0" class="graph" transform="scale(1 1) rotate(0) translate(4 207)">
<title>dependencies</title>
<polygon fill="white" stroke="transparent" points="-4,4 -4,-207 1131,-207 1131,4 -4,4"/>
<text text-anchor="start" x="542.51" y="-42.4" font-family="Times-12" font-weight="bold" font-size="14.00">Legend</text>
<polygon fill="#ffffb3" stroke="transparent" points="329.5,-10 329.5,-30 349.5,-30 349.5,-10 329.5,-10"/>
<text text-anchor="start" x="353.13" y="-15.4" font-family="Times-12" font-size="14.00"> &#160;Declarations</text>
<polygon fill="#8dd3c7" stroke="transparent" points="442.5,-10 442.5,-30 462.5,-30 462.5,-10 442.5,-10"/>
<text text-anchor="start" x="466.23" y="-15.4" font-family="Times-12" font-size="14.00"> &#160;Module</text>
<polygon fill="#80b1d3" stroke="transparent" points="528.5,-10 528.5,-30 548.5,-30 548.5,-10 528.5,-10"/>
<text text-anchor="start" x="552.28" y="-15.4" font-family="Times-12" font-size="14.00"> &#160;Bootstrap</text>
<polygon fill="#fdb462" stroke="transparent" points="625.5,-10 625.5,-30 645.5,-30 645.5,-10 625.5,-10"/>
<text text-anchor="start" x="649.17" y="-15.4" font-family="Times-12" font-size="14.00"> &#160;Providers</text>
<polygon fill="#fb8072" stroke="transparent" points="721.5,-10 721.5,-30 741.5,-30 741.5,-10 721.5,-10"/>
<text text-anchor="start" x="745.23" y="-15.4" font-family="Times-12" font-size="14.00"> &#160;Exports</text>
<g id="clust1" class="cluster">
<title>cluster_SessionModule</title>
<polygon fill="none" stroke="black" stroke-dasharray="1,5" points="8,-70 8,-195 1119,-195 1119,-70 8,-70"/>
</g>
<g id="clust6" class="cluster">
<title>cluster_SessionModule_providers</title>
<polygon fill="none" stroke="black" points="16,-78 16,-130 1111,-130 1111,-78 16,-78"/>
</g>
<!-- AuthInterceptor -->
<g id="node1" class="node">
<title>AuthInterceptor</title>
<ellipse fill="#fdb462" stroke="black" cx="1030" cy="-104" rx="72.91" ry="18"/>
<text text-anchor="middle" x="1030" y="-99.8" font-family="Times,serif" font-size="14.00">AuthInterceptor</text>
</g>
<!-- SessionModule -->
<g id="node7" class="node">
<title>SessionModule</title>
<polygon fill="#8dd3c7" stroke="black" points="599.33,-187 596.33,-191 575.33,-191 572.33,-187 496.67,-187 496.67,-151 599.33,-151 599.33,-187"/>
<text text-anchor="middle" x="548" y="-164.8" font-family="Times,serif" font-size="14.00">SessionModule</text>
</g>
<!-- AuthInterceptor&#45;&gt;SessionModule -->
<g id="edge1" class="edge">
<title>AuthInterceptor&#45;&gt;SessionModule</title>
<path fill="none" stroke="black" d="M1030,-122.28C1030,-143.32 1030,-175 1030,-175 1030,-175 609.58,-175 609.58,-175"/>
<polygon fill="black" stroke="black" points="609.58,-171.5 599.58,-175 609.58,-178.5 609.58,-171.5"/>
</g>
<!-- CouchdbAuthService -->
<g id="node2" class="node">
<title>CouchdbAuthService</title>
<ellipse fill="#fdb462" stroke="black" cx="845" cy="-104" rx="94.35" ry="18"/>
<text text-anchor="middle" x="845" y="-99.8" font-family="Times,serif" font-size="14.00">CouchdbAuthService</text>
</g>
<!-- CouchdbAuthService&#45;&gt;SessionModule -->
<g id="edge2" class="edge">
<title>CouchdbAuthService&#45;&gt;SessionModule</title>
<path fill="none" stroke="black" d="M845,-122.02C845,-139.37 845,-163 845,-163 845,-163 609.39,-163 609.39,-163"/>
<polygon fill="black" stroke="black" points="609.39,-159.5 599.39,-163 609.39,-166.5 609.39,-159.5"/>
</g>
<!-- KeycloakAuthService -->
<g id="node3" class="node">
<title>KeycloakAuthService</title>
<ellipse fill="#fdb462" stroke="black" cx="637" cy="-104" rx="96.11" ry="18"/>
<text text-anchor="middle" x="637" y="-99.8" font-family="Times,serif" font-size="14.00">KeycloakAuthService</text>
</g>
<!-- KeycloakAuthService&#45;&gt;SessionModule -->
<g id="edge3" class="edge">
<title>KeycloakAuthService&#45;&gt;SessionModule</title>
<path fill="none" stroke="black" d="M569.93,-117.15C569.93,-117.15 569.93,-140.69 569.93,-140.69"/>
<polygon fill="black" stroke="black" points="566.43,-140.69 569.93,-150.69 573.43,-140.69 566.43,-140.69"/>
</g>
<!-- LocalSession -->
<g id="node4" class="node">
<title>LocalSession</title>
<ellipse fill="#fdb462" stroke="black" cx="460" cy="-104" rx="62.56" ry="18"/>
<text text-anchor="middle" x="460" y="-99.8" font-family="Times,serif" font-size="14.00">LocalSession</text>
</g>
<!-- LocalSession&#45;&gt;SessionModule -->
<g id="edge4" class="edge">
<title>LocalSession&#45;&gt;SessionModule</title>
<path fill="none" stroke="black" d="M509.68,-115.03C509.68,-115.03 509.68,-140.78 509.68,-140.78"/>
<polygon fill="black" stroke="black" points="506.18,-140.78 509.68,-150.78 513.18,-140.78 506.18,-140.78"/>
</g>
<!-- RemoteSession -->
<g id="node5" class="node">
<title>RemoteSession</title>
<ellipse fill="#fdb462" stroke="black" cx="309" cy="-104" rx="70.66" ry="18"/>
<text text-anchor="middle" x="309" y="-99.8" font-family="Times,serif" font-size="14.00">RemoteSession</text>
</g>
<!-- RemoteSession&#45;&gt;SessionModule -->
<g id="edge5" class="edge">
<title>RemoteSession&#45;&gt;SessionModule</title>
<path fill="none" stroke="black" d="M309,-122.02C309,-139.37 309,-163 309,-163 309,-163 486.73,-163 486.73,-163"/>
<polygon fill="black" stroke="black" points="486.73,-166.5 496.73,-163 486.73,-159.5 486.73,-166.5"/>
</g>
<!-- SyncedSessionService -->
<g id="node6" class="node">
<title>SyncedSessionService</title>
<ellipse fill="#fdb462" stroke="black" cx="122" cy="-104" rx="97.85" ry="18"/>
<text text-anchor="middle" x="122" y="-99.8" font-family="Times,serif" font-size="14.00">SyncedSessionService</text>
</g>
<!-- SyncedSessionService&#45;&gt;SessionModule -->
<g id="edge6" class="edge">
<title>SyncedSessionService&#45;&gt;SessionModule</title>
<path fill="none" stroke="black" d="M122,-122.28C122,-143.32 122,-175 122,-175 122,-175 486.61,-175 486.61,-175"/>
<polygon fill="black" stroke="black" points="486.61,-178.5 496.61,-175 486.61,-171.5 486.61,-178.5"/>
</g>
</g>
</svg>
