<?xml version="1.0" encoding="UTF-8" standalone="no"?>
<!DOCTYPE svg PUBLIC "-//W3C//DTD SVG 1.1//EN"
 "http://www.w3.org/Graphics/SVG/1.1/DTD/svg11.dtd">
<!-- Generated by graphviz version 2.47.0 (20210316.0004)
 -->
<!-- Title: dependencies Pages: 1 -->
<svg width="4268pt" height="363pt"
 viewBox="0.00 0.00 4268.00 363.00" xmlns="http://www.w3.org/2000/svg" xmlns:xlink="http://www.w3.org/1999/xlink">
<g id="graph0" class="graph" transform="scale(1 1) rotate(0) translate(4 359)">
<title>dependencies</title>
<polygon fill="white" stroke="transparent" points="-4,4 -4,-359 4264,-359 4264,4 -4,4"/>
<text text-anchor="start" x="2109.01" y="-42.4" font-family="Times-12" font-weight="bold" font-size="14.00">Legend</text>
<polygon fill="#ffffb3" stroke="transparent" points="1896,-10 1896,-30 1916,-30 1916,-10 1896,-10"/>
<text text-anchor="start" x="1919.63" y="-15.4" font-family="Times-12" font-size="14.00"> &#160;Declarations</text>
<polygon fill="#8dd3c7" stroke="transparent" points="2009,-10 2009,-30 2029,-30 2029,-10 2009,-10"/>
<text text-anchor="start" x="2032.73" y="-15.4" font-family="Times-12" font-size="14.00"> &#160;Module</text>
<polygon fill="#80b1d3" stroke="transparent" points="2095,-10 2095,-30 2115,-30 2115,-10 2095,-10"/>
<text text-anchor="start" x="2118.78" y="-15.4" font-family="Times-12" font-size="14.00"> &#160;Bootstrap</text>
<polygon fill="#fdb462" stroke="transparent" points="2192,-10 2192,-30 2212,-30 2212,-10 2192,-10"/>
<text text-anchor="start" x="2215.67" y="-15.4" font-family="Times-12" font-size="14.00"> &#160;Providers</text>
<polygon fill="#fb8072" stroke="transparent" points="2288,-10 2288,-30 2308,-30 2308,-10 2288,-10"/>
<text text-anchor="start" x="2311.73" y="-15.4" font-family="Times-12" font-size="14.00"> &#160;Exports</text>
<g id="clust1" class="cluster">
<title>cluster_AppModule</title>
<polygon fill="none" stroke="black" stroke-dasharray="1,5" points="8,-146 8,-347 3280,-347 3280,-146 8,-146"/>
</g>
<g id="clust2" class="cluster">
<title>cluster_AppModule_declarations</title>
<polygon fill="none" stroke="black" points="3150,-154 3150,-206 3272,-206 3272,-154 3150,-154"/>
</g>
<g id="clust4" class="cluster">
<title>cluster_AppModule_imports</title>
<polygon fill="none" stroke="black" points="194,-154 194,-206 3142,-206 3142,-154 194,-154"/>
</g>
<g id="clust6" class="cluster">
<title>cluster_AppModule_bootstrap</title>
<polygon fill="none" stroke="black" points="1780,-287 1780,-339 1904,-339 1904,-287 1780,-287"/>
</g>
<g id="clust7" class="cluster">
<title>cluster_AppModule_providers</title>
<polygon fill="none" stroke="black" points="16,-154 16,-206 186,-206 186,-154 16,-154"/>
</g>
<g id="clust38" class="cluster">
<title>cluster_DatabaseModule</title>
<polygon fill="none" stroke="black" stroke-dasharray="1,5" points="397,-70 397,-138 571,-138 571,-70 397,-70"/>
</g>
<g id="clust43" class="cluster">
<title>cluster_DatabaseModule_providers</title>
<polygon fill="none" stroke="black" points="405,-78 405,-130 563,-130 563,-78 405,-78"/>
</g>
<g id="clust44" class="cluster">
<title>cluster_DatabaseTestingModule</title>
<polygon fill="none" stroke="black" stroke-dasharray="1,5" points="3288,-287 3288,-339 3456,-339 3456,-287 3288,-287"/>
</g>
<g id="clust56" class="cluster">
<title>cluster_DemoDataModule</title>
<polygon fill="none" stroke="black" stroke-dasharray="1,5" points="3288,-70 3288,-279 4054,-279 4054,-70 3288,-70"/>
</g>
<g id="clust57" class="cluster">
<title>cluster_DemoDataModule_declarations</title>
<polygon fill="none" stroke="black" points="3740,-78 3740,-130 4046,-130 4046,-78 3740,-78"/>
</g>
<g id="clust60" class="cluster">
<title>cluster_DemoDataModule_exports</title>
<polygon fill="none" stroke="black" points="3450,-219 3450,-271 3760,-271 3760,-219 3450,-219"/>
</g>
<g id="clust62" class="cluster">
<title>cluster_DemoDataModule_providers</title>
<polygon fill="none" stroke="black" points="3296,-78 3296,-130 3732,-130 3732,-78 3296,-78"/>
</g>
<g id="clust63" class="cluster">
<title>cluster_FileModule</title>
<polygon fill="none" stroke="black" stroke-dasharray="1,5" points="894,-70 894,-138 1279,-138 1279,-70 894,-70"/>
</g>
<g id="clust68" class="cluster">
<title>cluster_FileModule_providers</title>
<polygon fill="none" stroke="black" points="902,-78 902,-130 1271,-130 1271,-78 902,-78"/>
</g>
<g id="clust105" class="cluster">
<title>cluster_MockedTestingModule</title>
<polygon fill="none" stroke="black" stroke-dasharray="1,5" points="3464,-287 3464,-339 3628,-339 3628,-287 3464,-287"/>
</g>
<g id="clust117" class="cluster">
<title>cluster_PermissionsModule</title>
<polygon fill="none" stroke="black" stroke-dasharray="1,5" points="1507,-70 1507,-138 1815,-138 1815,-70 1507,-70"/>
</g>
<g id="clust122" class="cluster">
<title>cluster_PermissionsModule_providers</title>
<polygon fill="none" stroke="black" points="1515,-78 1515,-130 1807,-130 1807,-78 1515,-78"/>
</g>
<g id="clust141" class="cluster">
<title>cluster_SessionModule</title>
<polygon fill="none" stroke="black" stroke-dasharray="1,5" points="1823,-70 1823,-138 2934,-138 2934,-70 1823,-70"/>
</g>
<g id="clust146" class="cluster">
<title>cluster_SessionModule_providers</title>
<polygon fill="none" stroke="black" points="1831,-78 1831,-130 2926,-130 2926,-78 1831,-78"/>
</g>
<g id="clust147" class="cluster">
<title>cluster_StorybookBaseModule</title>
<polygon fill="none" stroke="black" stroke-dasharray="1,5" points="3636,-287 3636,-339 3798,-339 3798,-287 3636,-287"/>
</g>
<g id="clust153" class="cluster">
<title>cluster_TabStateModule</title>
<polygon fill="none" stroke="black" stroke-dasharray="1,5" points="4062,-70 4062,-279 4252,-279 4252,-70 4062,-70"/>
</g>
<g id="clust154" class="cluster">
<title>cluster_TabStateModule_declarations</title>
<polygon fill="none" stroke="black" points="4072,-78 4072,-130 4242,-130 4242,-78 4072,-78"/>
</g>
<g id="clust157" class="cluster">
<title>cluster_TabStateModule_exports</title>
<polygon fill="none" stroke="black" points="4070,-219 4070,-271 4244,-271 4244,-219 4070,-219"/>
</g>
<!-- AppComponent -->
<g id="node1" class="node">
<title>AppComponent</title>
<polygon fill="#ffffb3" stroke="black" points="3263.94,-198 3158.06,-198 3158.06,-162 3263.94,-162 3263.94,-198"/>
<text text-anchor="middle" x="3211" y="-175.8" font-family="Times,serif" font-size="14.00">AppComponent</text>
</g>
<!-- AppModule -->
<g id="node2" class="node">
<title>AppModule</title>
<polygon fill="#8dd3c7" stroke="black" points="1883.66,-263 1880.66,-267 1859.66,-267 1856.66,-263 1800.34,-263 1800.34,-227 1883.66,-227 1883.66,-263"/>
<text text-anchor="middle" x="1842" y="-240.8" font-family="Times,serif" font-size="14.00">AppModule</text>
</g>
<!-- AppComponent&#45;&gt;AppModule -->
<g id="edge1" class="edge">
<title>AppComponent&#45;&gt;AppModule</title>
<path fill="none" stroke="black" d="M3211,-198.29C3211,-220.21 3211,-254 3211,-254 3211,-254 1893.72,-254 1893.72,-254"/>
<polygon fill="black" stroke="black" points="1893.72,-250.5 1883.72,-254 1893.72,-257.5 1893.72,-250.5"/>
</g>
<!-- AppComponent  -->
<g id="node24" class="node">
<title>AppComponent </title>
<polygon fill="#80b1d3" stroke="black" points="1896.44,-331 1787.56,-331 1787.56,-295 1896.44,-295 1896.44,-331"/>
<text text-anchor="middle" x="1842" y="-308.8" font-family="Times,serif" font-size="14.00">AppComponent </text>
</g>
<!-- AppModule&#45;&gt;AppComponent  -->
<g id="edge23" class="edge">
<title>AppModule&#45;&gt;AppComponent </title>
<path fill="none" stroke="black" stroke-dasharray="1,5" d="M1828.06,-263.22C1828.06,-263.22 1828.06,-284.73 1828.06,-284.73"/>
<polygon fill="black" stroke="black" points="1824.56,-284.73 1828.06,-294.73 1831.56,-284.73 1824.56,-284.73"/>
</g>
<!-- DatabaseTestingModule -->
<g id="node27" class="node">
<title>DatabaseTestingModule</title>
<polygon fill="#8dd3c7" stroke="black" points="3448.34,-331 3445.34,-335 3424.34,-335 3421.34,-331 3295.66,-331 3295.66,-295 3448.34,-295 3448.34,-331"/>
<text text-anchor="middle" x="3372" y="-308.8" font-family="Times,serif" font-size="14.00">DatabaseTestingModule</text>
</g>
<!-- AppModule&#45;&gt;DatabaseTestingModule -->
<g id="edge26" class="edge">
<title>AppModule&#45;&gt;DatabaseTestingModule</title>
<path fill="none" stroke="black" d="M1883.67,-260C2121.81,-260 3299.88,-260 3299.88,-260 3299.88,-260 3299.88,-284.76 3299.88,-284.76"/>
<polygon fill="black" stroke="black" points="3296.38,-284.76 3299.88,-294.76 3303.38,-284.76 3296.38,-284.76"/>
</g>
<!-- MockedTestingModule -->
<g id="node35" class="node">
<title>MockedTestingModule</title>
<polygon fill="#8dd3c7" stroke="black" points="3619.92,-331 3616.92,-335 3595.92,-335 3592.92,-331 3472.08,-331 3472.08,-295 3619.92,-295 3619.92,-331"/>
<text text-anchor="middle" x="3546" y="-308.8" font-family="Times,serif" font-size="14.00">MockedTestingModule</text>
</g>
<!-- AppModule&#45;&gt;MockedTestingModule -->
<g id="edge33" class="edge">
<title>AppModule&#45;&gt;MockedTestingModule</title>
<path fill="none" stroke="black" d="M1883.86,-257C2137.06,-257 3453.22,-257 3453.22,-257 3453.22,-257 3453.22,-313 3453.22,-313 3453.22,-313 3461.99,-313 3461.99,-313"/>
<polygon fill="black" stroke="black" points="3461.99,-316.5 3471.99,-313 3461.99,-309.5 3461.99,-316.5"/>
</g>
<!-- StorybookBaseModule -->
<g id="node44" class="node">
<title>StorybookBaseModule</title>
<polygon fill="#8dd3c7" stroke="black" points="3789.59,-331 3786.59,-335 3765.59,-335 3762.59,-331 3644.41,-331 3644.41,-295 3789.59,-295 3789.59,-331"/>
<text text-anchor="middle" x="3717" y="-308.8" font-family="Times,serif" font-size="14.00">StorybookBaseModule</text>
</g>
<!-- AppModule&#45;&gt;StorybookBaseModule -->
<g id="edge42" class="edge">
<title>AppModule&#45;&gt;StorybookBaseModule</title>
<path fill="none" stroke="black" d="M1855.94,-263.19C1855.94,-271.28 1855.94,-279 1855.94,-279 1855.94,-279 3698.22,-279 3698.22,-279 3698.22,-279 3698.22,-284.81 3698.22,-284.81"/>
<polygon fill="black" stroke="black" points="3694.72,-284.81 3698.22,-294.81 3701.72,-284.81 3694.72,-284.81"/>
</g>
<!-- AttendanceModule -->
<g id="node3" class="node">
<title>AttendanceModule</title>
<polygon fill="#8dd3c7" stroke="black" points="3133.8,-198 3130.8,-202 3109.8,-202 3106.8,-198 3010.2,-198 3010.2,-162 3133.8,-162 3133.8,-198"/>
<text text-anchor="middle" x="3072" y="-175.8" font-family="Times,serif" font-size="14.00">AttendanceModule</text>
</g>
<!-- AttendanceModule&#45;&gt;AppModule -->
<g id="edge2" class="edge">
<title>AttendanceModule&#45;&gt;AppModule</title>
<path fill="none" stroke="black" d="M3072,-198.28C3072,-219.32 3072,-251 3072,-251 3072,-251 1893.98,-251 1893.98,-251"/>
<polygon fill="black" stroke="black" points="1893.98,-247.5 1883.98,-251 1893.98,-254.5 1893.98,-247.5"/>
</g>
<!-- ChildrenModule -->
<g id="node4" class="node">
<title>ChildrenModule</title>
<polygon fill="#8dd3c7" stroke="black" points="2992.04,-198 2989.04,-202 2968.04,-202 2965.04,-198 2883.96,-198 2883.96,-162 2992.04,-162 2992.04,-198"/>
<text text-anchor="middle" x="2938" y="-175.8" font-family="Times,serif" font-size="14.00">ChildrenModule</text>
</g>
<!-- ChildrenModule&#45;&gt;AppModule -->
<g id="edge3" class="edge">
<title>ChildrenModule&#45;&gt;AppModule</title>
<path fill="none" stroke="black" d="M2938,-198.22C2938,-218.37 2938,-248 2938,-248 2938,-248 1893.96,-248 1893.96,-248"/>
<polygon fill="black" stroke="black" points="1893.96,-244.5 1883.96,-248 1893.96,-251.5 1893.96,-244.5"/>
</g>
<!-- ConfigurableEnumModule -->
<g id="node5" class="node">
<title>ConfigurableEnumModule</title>
<polygon fill="#8dd3c7" stroke="black" points="2865.36,-198 2862.36,-202 2841.36,-202 2838.36,-198 2698.64,-198 2698.64,-162 2865.36,-162 2865.36,-198"/>
<text text-anchor="middle" x="2782" y="-175.8" font-family="Times,serif" font-size="14.00">ConfigurableEnumModule</text>
</g>
<!-- ConfigurableEnumModule&#45;&gt;AppModule -->
<g id="edge4" class="edge">
<title>ConfigurableEnumModule&#45;&gt;AppModule</title>
<path fill="none" stroke="black" d="M2782,-198.11C2782,-217.34 2782,-245 2782,-245 2782,-245 1893.91,-245 1893.91,-245"/>
<polygon fill="black" stroke="black" points="1893.91,-241.5 1883.91,-245 1893.91,-248.5 1893.91,-241.5"/>
</g>
<!-- ConflictResolutionModule -->
<g id="node6" class="node">
<title>ConflictResolutionModule</title>
<polygon fill="#8dd3c7" stroke="black" points="2681.1,-198 2678.1,-202 2657.1,-202 2654.1,-198 2514.9,-198 2514.9,-162 2681.1,-162 2681.1,-198"/>
<text text-anchor="middle" x="2598" y="-175.8" font-family="Times,serif" font-size="14.00">ConflictResolutionModule</text>
</g>
<!-- ConflictResolutionModule&#45;&gt;AppModule -->
<g id="edge5" class="edge">
<title>ConflictResolutionModule&#45;&gt;AppModule</title>
<path fill="none" stroke="black" d="M2598,-198.27C2598,-216.56 2598,-242 2598,-242 2598,-242 1893.72,-242 1893.72,-242"/>
<polygon fill="black" stroke="black" points="1893.72,-238.5 1883.72,-242 1893.72,-245.5 1893.72,-238.5"/>
</g>
<!-- CoreModule -->
<g id="node7" class="node">
<title>CoreModule</title>
<polygon fill="#8dd3c7" stroke="black" points="2497.26,-198 2494.26,-202 2473.26,-202 2470.26,-198 2410.74,-198 2410.74,-162 2497.26,-162 2497.26,-198"/>
<text text-anchor="middle" x="2454" y="-175.8" font-family="Times,serif" font-size="14.00">CoreModule</text>
</g>
<!-- CoreModule&#45;&gt;AppModule -->
<g id="edge6" class="edge">
<title>CoreModule&#45;&gt;AppModule</title>
<path fill="none" stroke="black" d="M2454,-198.02C2454,-215.37 2454,-239 2454,-239 2454,-239 1894.07,-239 1894.07,-239"/>
<polygon fill="black" stroke="black" points="1894.07,-235.5 1884.07,-239 1894.07,-242.5 1894.07,-235.5"/>
</g>
<!-- DataImportModule -->
<g id="node8" class="node">
<title>DataImportModule</title>
<polygon fill="#8dd3c7" stroke="black" points="2393.08,-198 2390.08,-202 2369.08,-202 2366.08,-198 2268.92,-198 2268.92,-162 2393.08,-162 2393.08,-198"/>
<text text-anchor="middle" x="2331" y="-175.8" font-family="Times,serif" font-size="14.00">DataImportModule</text>
</g>
<!-- DataImportModule&#45;&gt;AppModule -->
<g id="edge7" class="edge">
<title>DataImportModule&#45;&gt;AppModule</title>
<path fill="none" stroke="black" d="M2331,-198.03C2331,-214.4 2331,-236 2331,-236 2331,-236 1893.69,-236 1893.69,-236"/>
<polygon fill="black" stroke="black" points="1893.69,-232.5 1883.69,-236 1893.69,-239.5 1893.69,-232.5"/>
</g>
<!-- DatabaseModule -->
<g id="node9" class="node">
<title>DatabaseModule</title>
<polygon fill="#8dd3c7" stroke="black" points="539.35,-198 536.35,-202 515.35,-202 512.35,-198 428.65,-198 428.65,-162 539.35,-162 539.35,-198"/>
<text text-anchor="middle" x="484" y="-175.8" font-family="Times,serif" font-size="14.00">DatabaseModule</text>
</g>
<!-- DatabaseModule&#45;&gt;AppModule -->
<g id="edge8" class="edge">
<title>DatabaseModule&#45;&gt;AppModule</title>
<path fill="none" stroke="black" d="M484,-198.17C484,-219.5 484,-252 484,-252 484,-252 1790.24,-252 1790.24,-252"/>
<polygon fill="black" stroke="black" points="1790.24,-255.5 1800.24,-252 1790.24,-248.5 1790.24,-255.5"/>
</g>
<!-- FileModule -->
<g id="node10" class="node">
<title>FileModule</title>
<polygon fill="#8dd3c7" stroke="black" points="1121.83,-198 1118.83,-202 1097.83,-202 1094.83,-198 1040.17,-198 1040.17,-162 1121.83,-162 1121.83,-198"/>
<text text-anchor="middle" x="1081" y="-175.8" font-family="Times,serif" font-size="14.00">FileModule</text>
</g>
<!-- FileModule&#45;&gt;AppModule -->
<g id="edge9" class="edge">
<title>FileModule&#45;&gt;AppModule</title>
<path fill="none" stroke="black" d="M1081,-198.3C1081,-216.27 1081,-241 1081,-241 1081,-241 1790.27,-241 1790.27,-241"/>
<polygon fill="black" stroke="black" points="1790.27,-244.5 1800.27,-241 1790.27,-237.5 1790.27,-244.5"/>
</g>
<!-- HistoricalDataModule -->
<g id="node11" class="node">
<title>HistoricalDataModule</title>
<polygon fill="#8dd3c7" stroke="black" points="1985.68,-198 1982.68,-202 1961.68,-202 1958.68,-198 1844.32,-198 1844.32,-162 1985.68,-162 1985.68,-198"/>
<text text-anchor="middle" x="1915" y="-175.8" font-family="Times,serif" font-size="14.00">HistoricalDataModule</text>
</g>
<!-- HistoricalDataModule&#45;&gt;AppModule -->
<g id="edge10" class="edge">
<title>HistoricalDataModule&#45;&gt;AppModule</title>
<path fill="none" stroke="black" d="M1864.12,-198.11C1864.12,-198.11 1864.12,-216.99 1864.12,-216.99"/>
<polygon fill="black" stroke="black" points="1860.62,-216.99 1864.12,-226.99 1867.62,-216.99 1860.62,-216.99"/>
</g>
<!-- LanguageModule -->
<g id="node12" class="node">
<title>LanguageModule</title>
<polygon fill="#8dd3c7" stroke="black" points="1826.25,-198 1823.25,-202 1802.25,-202 1799.25,-198 1711.75,-198 1711.75,-162 1826.25,-162 1826.25,-198"/>
<text text-anchor="middle" x="1769" y="-175.8" font-family="Times,serif" font-size="14.00">LanguageModule</text>
</g>
<!-- LanguageModule&#45;&gt;AppModule -->
<g id="edge11" class="edge">
<title>LanguageModule&#45;&gt;AppModule</title>
<path fill="none" stroke="black" d="M1813.27,-198.11C1813.27,-198.11 1813.27,-216.99 1813.27,-216.99"/>
<polygon fill="black" stroke="black" points="1809.77,-216.99 1813.27,-226.99 1816.77,-216.99 1809.77,-216.99"/>
</g>
<!-- LatestChangesModule -->
<g id="node13" class="node">
<title>LatestChangesModule</title>
<polygon fill="#8dd3c7" stroke="black" points="1693.97,-198 1690.97,-202 1669.97,-202 1666.97,-198 1552.03,-198 1552.03,-162 1693.97,-162 1693.97,-198"/>
<text text-anchor="middle" x="1623" y="-175.8" font-family="Times,serif" font-size="14.00">LatestChangesModule</text>
</g>
<!-- LatestChangesModule&#45;&gt;AppModule -->
<g id="edge12" class="edge">
<title>LatestChangesModule&#45;&gt;AppModule</title>
<path fill="none" stroke="black" d="M1623,-198.05C1623,-212.37 1623,-230 1623,-230 1623,-230 1790.29,-230 1790.29,-230"/>
<polygon fill="black" stroke="black" points="1790.29,-233.5 1800.29,-230 1790.29,-226.5 1790.29,-233.5"/>
</g>
<!-- LocationModule -->
<g id="node14" class="node">
<title>LocationModule</title>
<polygon fill="#8dd3c7" stroke="black" points="1533.81,-198 1530.81,-202 1509.81,-202 1506.81,-198 1424.19,-198 1424.19,-162 1533.81,-162 1533.81,-198"/>
<text text-anchor="middle" x="1479" y="-175.8" font-family="Times,serif" font-size="14.00">LocationModule</text>
</g>
<!-- LocationModule&#45;&gt;AppModule -->
<g id="edge13" class="edge">
<title>LocationModule&#45;&gt;AppModule</title>
<path fill="none" stroke="black" d="M1479,-198.24C1479,-213.57 1479,-233 1479,-233 1479,-233 1790,-233 1790,-233"/>
<polygon fill="black" stroke="black" points="1790,-236.5 1800,-233 1790,-229.5 1790,-236.5"/>
</g>
<!-- MatchingEntitiesModule -->
<g id="node15" class="node">
<title>MatchingEntitiesModule</title>
<polygon fill="#8dd3c7" stroke="black" points="1405.98,-198 1402.98,-202 1381.98,-202 1378.98,-198 1250.02,-198 1250.02,-162 1405.98,-162 1405.98,-198"/>
<text text-anchor="middle" x="1328" y="-175.8" font-family="Times,serif" font-size="14.00">MatchingEntitiesModule</text>
</g>
<!-- MatchingEntitiesModule&#45;&gt;AppModule -->
<g id="edge14" class="edge">
<title>MatchingEntitiesModule&#45;&gt;AppModule</title>
<path fill="none" stroke="black" d="M1328,-198.03C1328,-214.4 1328,-236 1328,-236 1328,-236 1789.94,-236 1789.94,-236"/>
<polygon fill="black" stroke="black" points="1789.94,-239.5 1799.94,-236 1789.94,-232.5 1789.94,-239.5"/>
</g>
<!-- NotesModule -->
<g id="node16" class="node">
<title>NotesModule</title>
<polygon fill="#8dd3c7" stroke="black" points="1232.21,-198 1229.21,-202 1208.21,-202 1205.21,-198 1139.79,-198 1139.79,-162 1232.21,-162 1232.21,-198"/>
<text text-anchor="middle" x="1186" y="-175.8" font-family="Times,serif" font-size="14.00">NotesModule</text>
</g>
<!-- NotesModule&#45;&gt;AppModule -->
<g id="edge15" class="edge">
<title>NotesModule&#45;&gt;AppModule</title>
<path fill="none" stroke="black" d="M1186,-198.02C1186,-215.37 1186,-239 1186,-239 1186,-239 1790.22,-239 1790.22,-239"/>
<polygon fill="black" stroke="black" points="1790.22,-242.5 1800.22,-239 1790.22,-235.5 1790.22,-242.5"/>
</g>
<!-- PermissionsModule -->
<g id="node17" class="node">
<title>PermissionsModule</title>
<polygon fill="#8dd3c7" stroke="black" points="2130.71,-198 2127.71,-202 2106.71,-202 2103.71,-198 2003.29,-198 2003.29,-162 2130.71,-162 2130.71,-198"/>
<text text-anchor="middle" x="2067" y="-175.8" font-family="Times,serif" font-size="14.00">PermissionsModule</text>
</g>
<!-- PermissionsModule&#45;&gt;AppModule -->
<g id="edge16" class="edge">
<title>PermissionsModule&#45;&gt;AppModule</title>
<path fill="none" stroke="black" d="M2067,-198.05C2067,-212.37 2067,-230 2067,-230 2067,-230 1893.79,-230 1893.79,-230"/>
<polygon fill="black" stroke="black" points="1893.79,-226.5 1883.79,-230 1893.79,-233.5 1893.79,-226.5"/>
</g>
<!-- ProgressDashboardWidgetModule -->
<g id="node18" class="node">
<title>ProgressDashboardWidgetModule</title>
<polygon fill="#8dd3c7" stroke="black" points="1022.61,-198 1019.61,-202 998.61,-202 995.61,-198 813.39,-198 813.39,-162 1022.61,-162 1022.61,-198"/>
<text text-anchor="middle" x="918" y="-175.8" font-family="Times,serif" font-size="14.00">ProgressDashboardWidgetModule</text>
</g>
<!-- ProgressDashboardWidgetModule&#45;&gt;AppModule -->
<g id="edge17" class="edge">
<title>ProgressDashboardWidgetModule&#45;&gt;AppModule</title>
<path fill="none" stroke="black" d="M918,-198.17C918,-217.09 918,-244 918,-244 918,-244 1790.2,-244 1790.2,-244"/>
<polygon fill="black" stroke="black" points="1790.2,-247.5 1800.2,-244 1790.2,-240.5 1790.2,-247.5"/>
</g>
<!-- ReportingModule -->
<g id="node19" class="node">
<title>ReportingModule</title>
<polygon fill="#8dd3c7" stroke="black" points="794.54,-198 791.54,-202 770.54,-202 767.54,-198 679.46,-198 679.46,-162 794.54,-162 794.54,-198"/>
<text text-anchor="middle" x="737" y="-175.8" font-family="Times,serif" font-size="14.00">ReportingModule</text>
</g>
<!-- ReportingModule&#45;&gt;AppModule -->
<g id="edge18" class="edge">
<title>ReportingModule&#45;&gt;AppModule</title>
<path fill="none" stroke="black" d="M737,-198.31C737,-218.15 737,-247 737,-247 737,-247 1790.03,-247 1790.03,-247"/>
<polygon fill="black" stroke="black" points="1790.03,-250.5 1800.03,-247 1790.03,-243.5 1790.03,-250.5"/>
</g>
<!-- SchoolsModule -->
<g id="node20" class="node">
<title>SchoolsModule</title>
<polygon fill="#8dd3c7" stroke="black" points="660.88,-198 657.88,-202 636.88,-202 633.88,-198 557.12,-198 557.12,-162 660.88,-162 660.88,-198"/>
<text text-anchor="middle" x="609" y="-175.8" font-family="Times,serif" font-size="14.00">SchoolsModule</text>
</g>
<!-- SchoolsModule&#45;&gt;AppModule -->
<g id="edge19" class="edge">
<title>SchoolsModule&#45;&gt;AppModule</title>
<path fill="none" stroke="black" d="M609,-198.03C609,-218.77 609,-250 609,-250 609,-250 1790.27,-250 1790.27,-250"/>
<polygon fill="black" stroke="black" points="1790.27,-253.5 1800.27,-250 1790.27,-246.5 1790.27,-253.5"/>
</g>
<!-- SessionModule -->
<g id="node21" class="node">
<title>SessionModule</title>
<polygon fill="#8dd3c7" stroke="black" points="2251.33,-198 2248.33,-202 2227.33,-202 2224.33,-198 2148.67,-198 2148.67,-162 2251.33,-162 2251.33,-198"/>
<text text-anchor="middle" x="2200" y="-175.8" font-family="Times,serif" font-size="14.00">SessionModule</text>
</g>
<!-- SessionModule&#45;&gt;AppModule -->
<g id="edge20" class="edge">
<title>SessionModule&#45;&gt;AppModule</title>
<path fill="none" stroke="black" d="M2200,-198.24C2200,-213.57 2200,-233 2200,-233 2200,-233 1893.77,-233 1893.77,-233"/>
<polygon fill="black" stroke="black" points="1893.77,-229.5 1883.77,-233 1893.77,-236.5 1893.77,-229.5"/>
</g>
<!-- TodosModule -->
<g id="node22" class="node">
<title>TodosModule</title>
<polygon fill="#8dd3c7" stroke="black" points="410.05,-198 407.05,-202 386.05,-202 383.05,-198 315.95,-198 315.95,-162 410.05,-162 410.05,-198"/>
<text text-anchor="middle" x="363" y="-175.8" font-family="Times,serif" font-size="14.00">TodosModule</text>
</g>
<!-- TodosModule&#45;&gt;AppModule -->
<g id="edge21" class="edge">
<title>TodosModule&#45;&gt;AppModule</title>
<path fill="none" stroke="black" d="M363,-198.16C363,-220.35 363,-255 363,-255 363,-255 1790.12,-255 1790.12,-255"/>
<polygon fill="black" stroke="black" points="1790.12,-258.5 1800.12,-255 1790.12,-251.5 1790.12,-258.5"/>
</g>
<!-- UiComponent -->
<g id="node23" class="node">
<title>UiComponent</title>
<polygon fill="#8dd3c7" stroke="black" points="297.83,-198 294.83,-202 273.83,-202 270.83,-198 202.17,-198 202.17,-162 297.83,-162 297.83,-198"/>
<text text-anchor="middle" x="250" y="-175.8" font-family="Times,serif" font-size="14.00">UiComponent</text>
</g>
<!-- UiComponent&#45;&gt;AppModule -->
<g id="edge22" class="edge">
<title>UiComponent&#45;&gt;AppModule</title>
<path fill="none" stroke="black" d="M250,-198.09C250,-221.13 250,-258 250,-258 250,-258 1790.24,-258 1790.24,-258"/>
<polygon fill="black" stroke="black" points="1790.24,-261.5 1800.24,-258 1790.24,-254.5 1790.24,-261.5"/>
</g>
<!-- AnalyticsService -->
<g id="node25" class="node">
<title>AnalyticsService</title>
<ellipse fill="#fdb462" stroke="black" cx="101" cy="-180" rx="77" ry="18"/>
<text text-anchor="middle" x="101" y="-175.8" font-family="Times,serif" font-size="14.00">AnalyticsService</text>
</g>
<!-- AnalyticsService&#45;&gt;AppModule -->
<g id="edge24" class="edge">
<title>AnalyticsService&#45;&gt;AppModule</title>
<path fill="none" stroke="black" d="M101,-198.38C101,-222.28 101,-261 101,-261 101,-261 1790.25,-261 1790.25,-261"/>
<polygon fill="black" stroke="black" points="1790.25,-264.5 1800.25,-261 1790.25,-257.5 1790.25,-264.5"/>
</g>
<!-- PouchDatabase -->
<g id="node26" class="node">
<title>PouchDatabase</title>
<ellipse fill="#fdb462" stroke="black" cx="484" cy="-104" rx="70.63" ry="18"/>
<text text-anchor="middle" x="484" y="-99.8" font-family="Times,serif" font-size="14.00">PouchDatabase</text>
</g>
<!-- PouchDatabase&#45;&gt;DatabaseModule -->
<g id="edge25" class="edge">
<title>PouchDatabase&#45;&gt;DatabaseModule</title>
<path fill="none" stroke="black" d="M484,-122.01C484,-122.01 484,-151.85 484,-151.85"/>
<polygon fill="black" stroke="black" points="480.5,-151.85 484,-161.85 487.5,-151.85 480.5,-151.85"/>
</g>
<!-- DemoDataGeneratingProgressDialogComponent -->
<g id="node28" class="node">
<title>DemoDataGeneratingProgressDialogComponent</title>
<polygon fill="#ffffb3" stroke="black" points="4038.47,-122 3747.53,-122 3747.53,-86 4038.47,-86 4038.47,-122"/>
<text text-anchor="middle" x="3893" y="-99.8" font-family="Times,serif" font-size="14.00">DemoDataGeneratingProgressDialogComponent</text>
</g>
<!-- DemoDataModule -->
<g id="node29" class="node">
<title>DemoDataModule</title>
<polygon fill="#8dd3c7" stroke="black" points="3665.19,-198 3662.19,-202 3641.19,-202 3638.19,-198 3544.81,-198 3544.81,-162 3665.19,-162 3665.19,-198"/>
<text text-anchor="middle" x="3605" y="-175.8" font-family="Times,serif" font-size="14.00">DemoDataModule</text>
</g>
<!-- DemoDataGeneratingProgressDialogComponent&#45;&gt;DemoDataModule -->
<g id="edge27" class="edge">
<title>DemoDataGeneratingProgressDialogComponent&#45;&gt;DemoDataModule</title>
<path fill="none" stroke="black" d="M3770.77,-122.01C3770.77,-144.49 3770.77,-180 3770.77,-180 3770.77,-180 3675.31,-180 3675.31,-180"/>
<polygon fill="black" stroke="black" points="3675.31,-176.5 3665.31,-180 3675.31,-183.5 3675.31,-176.5"/>
</g>
<!-- DemoDataGeneratingProgressDialogComponent  -->
<g id="node30" class="node">
<title>DemoDataGeneratingProgressDialogComponent </title>
<polygon fill="#fb8072" stroke="black" points="3751.97,-263 3458.03,-263 3458.03,-227 3751.97,-227 3751.97,-263"/>
<text text-anchor="middle" x="3605" y="-240.8" font-family="Times,serif" font-size="14.00">DemoDataGeneratingProgressDialogComponent </text>
</g>
<!-- DemoDataModule&#45;&gt;DemoDataGeneratingProgressDialogComponent  -->
<g id="edge28" class="edge">
<title>DemoDataModule&#45;&gt;DemoDataGeneratingProgressDialogComponent </title>
<path fill="none" stroke="black" stroke-dasharray="5,2" d="M3605,-198.11C3605,-198.11 3605,-216.99 3605,-216.99"/>
<polygon fill="black" stroke="black" points="3601.5,-216.99 3605,-226.99 3608.5,-216.99 3601.5,-216.99"/>
</g>
<!-- DemoDataInitializerService -->
<g id="node31" class="node">
<title>DemoDataInitializerService</title>
<ellipse fill="#fdb462" stroke="black" cx="3605" cy="-104" rx="119.21" ry="18"/>
<text text-anchor="middle" x="3605" y="-99.8" font-family="Times,serif" font-size="14.00">DemoDataInitializerService</text>
</g>
<!-- DemoDataInitializerService&#45;&gt;DemoDataModule -->
<g id="edge29" class="edge">
<title>DemoDataInitializerService&#45;&gt;DemoDataModule</title>
<path fill="none" stroke="black" d="M3605,-122.01C3605,-122.01 3605,-151.85 3605,-151.85"/>
<polygon fill="black" stroke="black" points="3601.5,-151.85 3605,-161.85 3608.5,-151.85 3601.5,-151.85"/>
</g>
<!-- DemoDataService -->
<g id="node32" class="node">
<title>DemoDataService</title>
<ellipse fill="#fdb462" stroke="black" cx="3386" cy="-104" rx="81.64" ry="18"/>
<text text-anchor="middle" x="3386" y="-99.8" font-family="Times,serif" font-size="14.00">DemoDataService</text>
</g>
<!-- DemoDataService&#45;&gt;DemoDataModule -->
<g id="edge30" class="edge">
<title>DemoDataService&#45;&gt;DemoDataModule</title>
<path fill="none" stroke="black" d="M3462.92,-110.22C3462.92,-128.37 3462.92,-180 3462.92,-180 3462.92,-180 3534.74,-180 3534.74,-180"/>
<polygon fill="black" stroke="black" points="3534.74,-183.5 3544.74,-180 3534.74,-176.5 3534.74,-183.5"/>
</g>
<!-- CouchdbFileService -->
<g id="node33" class="node">
<title>CouchdbFileService</title>
<ellipse fill="#fdb462" stroke="black" cx="1173" cy="-104" rx="89.77" ry="18"/>
<text text-anchor="middle" x="1173" y="-99.8" font-family="Times,serif" font-size="14.00">CouchdbFileService</text>
</g>
<!-- CouchdbFileService&#45;&gt;FileModule -->
<g id="edge31" class="edge">
<title>CouchdbFileService&#45;&gt;FileModule</title>
<path fill="none" stroke="black" d="M1102.39,-115.21C1102.39,-115.21 1102.39,-151.96 1102.39,-151.96"/>
<polygon fill="black" stroke="black" points="1098.89,-151.96 1102.39,-161.96 1105.89,-151.96 1098.89,-151.96"/>
</g>
<!-- MockFileService -->
<g id="node34" class="node">
<title>MockFileService</title>
<ellipse fill="#fdb462" stroke="black" cx="988" cy="-104" rx="77.58" ry="18"/>
<text text-anchor="middle" x="988" y="-99.8" font-family="Times,serif" font-size="14.00">MockFileService</text>
</g>
<!-- MockFileService&#45;&gt;FileModule -->
<g id="edge32" class="edge">
<title>MockFileService&#45;&gt;FileModule</title>
<path fill="none" stroke="black" d="M1052.94,-113.94C1052.94,-113.94 1052.94,-151.91 1052.94,-151.91"/>
<polygon fill="black" stroke="black" points="1049.44,-151.91 1052.94,-161.91 1056.44,-151.91 1049.44,-151.91"/>
</g>
<!-- AbilityService -->
<g id="node36" class="node">
<title>AbilityService</title>
<ellipse fill="#fdb462" stroke="black" cx="1732" cy="-104" rx="67.21" ry="18"/>
<text text-anchor="middle" x="1732" y="-99.8" font-family="Times,serif" font-size="14.00">AbilityService</text>
</g>
<!-- AbilityService&#45;&gt;PermissionsModule -->
<g id="edge34" class="edge">
<title>AbilityService&#45;&gt;PermissionsModule</title>
<path fill="none" stroke="black" d="M1755.49,-121.1C1755.49,-127.84 1755.49,-134 1755.49,-134 1755.49,-134 2019.16,-134 2019.16,-134 2019.16,-134 2019.16,-151.82 2019.16,-151.82"/>
<polygon fill="black" stroke="black" points="2015.66,-151.82 2019.16,-161.82 2022.66,-151.82 2015.66,-151.82"/>
</g>
<!-- EntityAbility -->
<g id="node37" class="node">
<title>EntityAbility</title>
<ellipse fill="#fdb462" stroke="black" cx="1585" cy="-104" rx="62.01" ry="18"/>
<text text-anchor="middle" x="1585" y="-99.8" font-family="Times,serif" font-size="14.00">EntityAbility</text>
</g>
<!-- EntityAbility&#45;&gt;PermissionsModule -->
<g id="edge35" class="edge">
<title>EntityAbility&#45;&gt;PermissionsModule</title>
<path fill="none" stroke="black" d="M1599.51,-121.58C1599.51,-130.72 1599.51,-140 1599.51,-140 1599.51,-140 2011.28,-140 2011.28,-140 2011.28,-140 2011.28,-151.87 2011.28,-151.87"/>
<polygon fill="black" stroke="black" points="2007.78,-151.87 2011.28,-161.87 2014.78,-151.87 2007.78,-151.87"/>
</g>
<!-- AuthInterceptor -->
<g id="node38" class="node">
<title>AuthInterceptor</title>
<ellipse fill="#fdb462" stroke="black" cx="2845" cy="-104" rx="72.91" ry="18"/>
<text text-anchor="middle" x="2845" y="-99.8" font-family="Times,serif" font-size="14.00">AuthInterceptor</text>
</g>
<!-- AuthInterceptor&#45;&gt;SessionModule -->
<g id="edge36" class="edge">
<title>AuthInterceptor&#45;&gt;SessionModule</title>
<path fill="none" stroke="black" d="M2818.86,-121.06C2818.86,-136.55 2818.86,-157 2818.86,-157 2818.86,-157 2243.43,-157 2243.43,-157 2243.43,-157 2243.43,-157.49 2243.43,-157.49"/>
<polygon fill="black" stroke="black" points="2239.93,-151.88 2243.43,-161.88 2246.93,-151.88 2239.93,-151.88"/>
</g>
<!-- CouchdbAuthService -->
<g id="node39" class="node">
<title>CouchdbAuthService</title>
<ellipse fill="#fdb462" stroke="black" cx="2660" cy="-104" rx="94.35" ry="18"/>
<text text-anchor="middle" x="2660" y="-99.8" font-family="Times,serif" font-size="14.00">CouchdbAuthService</text>
</g>
<!-- CouchdbAuthService&#45;&gt;SessionModule -->
<g id="edge37" class="edge">
<title>CouchdbAuthService&#45;&gt;SessionModule</title>
<path fill="none" stroke="black" d="M2623.44,-120.7C2623.44,-134.21 2623.44,-151 2623.44,-151 2623.44,-151 2235.69,-151 2235.69,-151 2235.69,-151 2235.69,-152.08 2235.69,-152.08"/>
<polygon fill="black" stroke="black" points="2232.19,-151.8 2235.69,-161.8 2239.19,-151.8 2232.19,-151.8"/>
</g>
<!-- KeycloakAuthService -->
<g id="node40" class="node">
<title>KeycloakAuthService</title>
<ellipse fill="#fdb462" stroke="black" cx="2452" cy="-104" rx="96.11" ry="18"/>
<text text-anchor="middle" x="2452" y="-99.8" font-family="Times,serif" font-size="14.00">KeycloakAuthService</text>
</g>
<!-- KeycloakAuthService&#45;&gt;SessionModule -->
<g id="edge38" class="edge">
<title>KeycloakAuthService&#45;&gt;SessionModule</title>
<path fill="none" stroke="black" d="M2374.37,-114.77C2374.37,-126.92 2374.37,-145 2374.37,-145 2374.37,-145 2227.95,-145 2227.95,-145 2227.95,-145 2227.95,-151.68 2227.95,-151.68"/>
<polygon fill="black" stroke="black" points="2224.45,-151.68 2227.95,-161.68 2231.45,-151.68 2224.45,-151.68"/>
</g>
<!-- LocalSession -->
<g id="node41" class="node">
<title>LocalSession</title>
<ellipse fill="#fdb462" stroke="black" cx="2275" cy="-104" rx="62.56" ry="18"/>
<text text-anchor="middle" x="2275" y="-99.8" font-family="Times,serif" font-size="14.00">LocalSession</text>
</g>
<!-- LocalSession&#45;&gt;SessionModule -->
<g id="edge39" class="edge">
<title>LocalSession&#45;&gt;SessionModule</title>
<path fill="none" stroke="black" d="M2220.21,-112.72C2220.21,-112.72 2220.21,-151.88 2220.21,-151.88"/>
<polygon fill="black" stroke="black" points="2216.71,-151.88 2220.21,-161.88 2223.71,-151.88 2216.71,-151.88"/>
</g>
<!-- RemoteSession -->
<g id="node42" class="node">
<title>RemoteSession</title>
<ellipse fill="#fdb462" stroke="black" cx="2124" cy="-104" rx="70.66" ry="18"/>
<text text-anchor="middle" x="2124" y="-99.8" font-family="Times,serif" font-size="14.00">RemoteSession</text>
</g>
<!-- RemoteSession&#45;&gt;SessionModule -->
<g id="edge40" class="edge">
<title>RemoteSession&#45;&gt;SessionModule</title>
<path fill="none" stroke="black" d="M2179.33,-115.21C2179.33,-115.21 2179.33,-151.96 2179.33,-151.96"/>
<polygon fill="black" stroke="black" points="2175.83,-151.96 2179.33,-161.96 2182.83,-151.96 2175.83,-151.96"/>
</g>
<!-- SyncedSessionService -->
<g id="node43" class="node">
<title>SyncedSessionService</title>
<ellipse fill="#fdb462" stroke="black" cx="1937" cy="-104" rx="97.85" ry="18"/>
<text text-anchor="middle" x="1937" y="-99.8" font-family="Times,serif" font-size="14.00">SyncedSessionService</text>
</g>
<!-- SyncedSessionService&#45;&gt;SessionModule -->
<g id="edge41" class="edge">
<title>SyncedSessionService&#45;&gt;SessionModule</title>
<path fill="none" stroke="black" d="M2027.04,-111.33C2027.04,-118.39 2027.04,-128 2027.04,-128 2027.04,-128 2164.08,-128 2164.08,-128 2164.08,-128 2164.08,-151.81 2164.08,-151.81"/>
<polygon fill="black" stroke="black" points="2160.58,-151.81 2164.08,-161.81 2167.58,-151.81 2160.58,-151.81"/>
</g>
<!-- TabStateMemoDirective -->
<g id="node45" class="node">
<title>TabStateMemoDirective</title>
<polygon fill="#ffffb3" stroke="black" points="4234.39,-122 4079.61,-122 4079.61,-86 4234.39,-86 4234.39,-122"/>
<text text-anchor="middle" x="4157" y="-99.8" font-family="Times,serif" font-size="14.00">TabStateMemoDirective</text>
</g>
<!-- TabStateModule -->
<g id="node46" class="node">
<title>TabStateModule</title>
<polygon fill="#8dd3c7" stroke="black" points="4211.81,-198 4208.81,-202 4187.81,-202 4184.81,-198 4102.19,-198 4102.19,-162 4211.81,-162 4211.81,-198"/>
<text text-anchor="middle" x="4157" y="-175.8" font-family="Times,serif" font-size="14.00">TabStateModule</text>
</g>
<!-- TabStateMemoDirective&#45;&gt;TabStateModule -->
<g id="edge43" class="edge">
<title>TabStateMemoDirective&#45;&gt;TabStateModule</title>
<path fill="none" stroke="black" d="M4157,-122.01C4157,-122.01 4157,-151.85 4157,-151.85"/>
<polygon fill="black" stroke="black" points="4153.5,-151.85 4157,-161.85 4160.5,-151.85 4153.5,-151.85"/>
</g>
<!-- TabStateMemoDirective  -->
<g id="node47" class="node">
<title>TabStateMemoDirective </title>
<polygon fill="#fb8072" stroke="black" points="4235.89,-263 4078.11,-263 4078.11,-227 4235.89,-227 4235.89,-263"/>
<text text-anchor="middle" x="4157" y="-240.8" font-family="Times,serif" font-size="14.00">TabStateMemoDirective </text>
</g>
<!-- TabStateModule&#45;&gt;TabStateMemoDirective  -->
<g id="edge44" class="edge">
<title>TabStateModule&#45;&gt;TabStateMemoDirective </title>
<path fill="none" stroke="black" stroke-dasharray="5,2" d="M4157,-198.11C4157,-198.11 4157,-216.99 4157,-216.99"/>
<polygon fill="black" stroke="black" points="4153.5,-216.99 4157,-226.99 4160.5,-216.99 4153.5,-216.99"/>
</g>
</g>
</svg>
